<svg width="18" height="18" viewBox="0 0 18 18" fill="none" xmlns="http://www.w3.org/2000/svg">
<path d="M13.9262 14.1153C14.3654 13.7805 14.4501 13.153 14.1153 12.7137C13.7805 12.2745 13.153 12.1899 12.7138 12.5247L13.9262 14.1153ZM9 14.8181V15.8181C9.00545 15.8181 9.0109 15.8181 9.01635 15.818L9 14.8181ZM1 8.99996L0.118844 8.52714C-0.0347896 8.81345 -0.0397388 9.15655 0.105573 9.44718L1 8.99996ZM5.2869 5.47474C5.72584 5.13956 5.80996 4.51201 5.47478 4.07306C5.1396 3.63412 4.51204 3.55 4.0731 3.88519L5.2869 5.47474ZM7.24481 2.38265C6.70706 2.50852 6.37317 3.04649 6.49905 3.58424C6.62492 4.12199 7.16289 4.45588 7.70064 4.33001L7.24481 2.38265ZM9 3.18178L8.99765 4.18178H9V3.18178ZM17 8.99996L17.8819 9.47137C18.0348 9.18532 18.0395 8.84287 17.8944 8.55275L17 8.99996ZM14.6639 10.6761C14.3083 11.0987 14.3627 11.7295 14.7852 12.0851C15.2078 12.4407 15.8387 12.3864 16.1942 11.9638L14.6639 10.6761ZM11.2734 11.2235C11.6499 10.8194 11.6276 10.1867 11.2235 9.81017C10.8195 9.43367 10.1867 9.456 9.81021 9.86006L11.2734 11.2235ZM8.1399 8.18976C8.54396 7.81325 8.5663 7.18048 8.18979 6.77642C7.81329 6.37236 7.18052 6.35003 6.77646 6.72653L8.1399 8.18976ZM12.7138 12.5247C11.6403 13.3429 10.3332 13.7962 8.98365 13.8183L9.01635 15.818C10.7928 15.789 12.5133 15.1923 13.9262 14.1153L12.7138 12.5247ZM9 13.8181C6.85405 13.8181 5.10006 12.59 3.82045 11.2251C3.18976 10.5524 2.70305 9.87582 2.37413 9.36653C2.21029 9.11284 2.08723 8.90319 2.00652 8.7597C1.9662 8.68802 1.93656 8.63305 1.91779 8.59759C1.90841 8.57986 1.90176 8.56702 1.89785 8.55943C1.8959 8.55563 1.89464 8.55315 1.89406 8.55202C1.89378 8.55145 1.89366 8.55123 1.89373 8.55135C1.89376 8.55141 1.89383 8.55156 1.89395 8.55179C1.894 8.55191 1.89413 8.55215 1.89415 8.5522C1.89429 8.55247 1.89443 8.55275 1 8.99996C0.105573 9.44718 0.105737 9.4475 0.105913 9.44786C0.105986 9.448 0.106173 9.44838 0.10632 9.44867C0.106615 9.44926 0.106954 9.44993 0.107339 9.4507C0.108109 9.45223 0.10906 9.45411 0.110192 9.45634C0.112456 9.46081 0.115442 9.46667 0.11915 9.47388C0.126565 9.4883 0.136867 9.50814 0.150036 9.53302C0.176366 9.58278 0.214199 9.65281 0.263368 9.74022C0.36163 9.91491 0.505617 10.1598 0.694052 10.4516C1.06968 11.0332 1.62843 11.8112 2.36137 12.593C3.80903 14.1372 6.05504 15.8181 9 15.8181V13.8181ZM1.88116 9.47279C2.71838 7.91254 3.8796 6.54937 5.2869 5.47474L4.0731 3.88519C2.43914 5.13289 1.09091 6.7156 0.118844 8.52714L1.88116 9.47279ZM7.70064 4.33001C8.12577 4.2305 8.56103 4.18075 8.99765 4.18178L9.00235 2.18178C8.4107 2.18039 7.82089 2.2478 7.24481 2.38265L7.70064 4.33001ZM9 4.18178C11.1459 4.18178 12.8999 5.40989 14.1796 6.77481C14.8102 7.44755 15.297 8.1241 15.6259 8.6334C15.7897 8.88708 15.9128 9.09673 15.9935 9.24022C16.0338 9.3119 16.0634 9.36687 16.0822 9.40234C16.0916 9.42007 16.0982 9.4329 16.1021 9.4405C16.1041 9.4443 16.1054 9.44678 16.1059 9.44791C16.1062 9.44847 16.1063 9.4487 16.1063 9.44858C16.1062 9.44852 16.1062 9.44837 16.1061 9.44814C16.106 9.44802 16.1059 9.44778 16.1058 9.44772C16.1057 9.44746 16.1056 9.44718 17 8.99996C17.8944 8.55275 17.8943 8.55242 17.8941 8.55207C17.894 8.55192 17.8938 8.55155 17.8937 8.55126C17.8934 8.55067 17.893 8.54999 17.8927 8.54923C17.8919 8.5477 17.8909 8.54582 17.8898 8.54358C17.8875 8.53912 17.8846 8.53326 17.8808 8.52605C17.8734 8.51162 17.8631 8.49179 17.85 8.4669C17.8236 8.41714 17.7858 8.34711 17.7366 8.2597C17.6384 8.08501 17.4944 7.84012 17.3059 7.54835C16.9303 6.96673 16.3716 6.18874 15.6386 5.40693C14.191 3.86277 11.945 2.18178 9 2.18178V4.18178ZM16.1181 8.52855C15.7094 9.29306 15.2221 10.0128 14.6639 10.6761L16.1942 11.9638C16.842 11.194 17.4076 10.3587 17.8819 9.47137L16.1181 8.52855ZM9.81021 9.86006C9.51559 10.1762 9.07188 10.3064 8.65315 10.1995L8.15826 12.1373C9.28562 12.4252 10.4802 12.0748 11.2734 11.2235L9.81021 9.86006ZM8.65315 10.1995C8.23441 10.0925 7.90745 9.76555 7.80051 9.34682L5.8627 9.8417C6.15061 10.9691 7.03091 11.8494 8.15826 12.1373L8.65315 10.1995ZM7.80051 9.34682C7.69357 8.92809 7.82372 8.48438 8.1399 8.18976L6.77646 6.72653C5.9252 7.51974 5.5748 8.71434 5.8627 9.8417L7.80051 9.34682Z" fill="#999999"/>
<path d="M1 0.999939L17 16.9999" stroke="#999999" stroke-width="2" stroke-linecap="round" stroke-linejoin="round"/>
</svg>
