<svg width="40" height="40" viewBox="0 0 40 40" fill="none" xmlns="http://www.w3.org/2000/svg">
<path fill-rule="evenodd" clip-rule="evenodd" d="M20 40C31.0457 40 40 31.0457 40 20C40 8.9543 31.0457 0 20 0C8.9543 0 0 8.9543 0 20C0 31.0457 8.9543 40 20 40Z" fill="#7E72F2"/>
<path fill-rule="evenodd" clip-rule="evenodd" d="M20.5 23C21.8807 23 23 21.8807 23 20.5C23 19.1193 21.8807 18 20.5 18C19.1193 18 18 19.1193 18 20.5C18 21.8807 19.1193 23 20.5 23Z" stroke="white" stroke-width="2" stroke-linecap="round" stroke-linejoin="round"/>
<path fill-rule="evenodd" clip-rule="evenodd" d="M26.0545 23.4545C25.8317 23.9594 25.9386 24.5491 26.3245 24.9436L26.3736 24.9927C26.6809 25.2997 26.8536 25.7161 26.8536 26.1505C26.8536 26.5848 26.6809 27.0013 26.3736 27.3082C26.0667 27.6155 25.6502 27.7881 25.2159 27.7881C24.7816 27.7881 24.3651 27.6155 24.0582 27.3082L24.0091 27.2591C23.6146 26.8732 23.0249 26.7663 22.52 26.9891C22.0254 27.2011 21.704 27.6865 21.7018 28.2245V28.3636C21.7018 29.2674 20.9692 30 20.0655 30C19.1617 30 18.4291 29.2674 18.4291 28.3636V28.29C18.4161 27.7358 18.0657 27.2459 17.5455 27.0545C17.0406 26.8317 16.4509 26.9386 16.0564 27.3245L16.0073 27.3736C15.7003 27.6809 15.2839 27.8536 14.8495 27.8536C14.4152 27.8536 13.9987 27.6809 13.6918 27.3736C13.3845 27.0667 13.2119 26.6502 13.2119 26.2159C13.2119 25.7816 13.3845 25.3651 13.6918 25.0582L13.7409 25.0091C14.1268 24.6146 14.2337 24.0249 14.0109 23.52C13.7989 23.0254 13.3135 22.704 12.7755 22.7018H12.6364C11.7326 22.7018 11 21.9692 11 21.0655C11 20.1617 11.7326 19.4291 12.6364 19.4291H12.71C13.2642 19.4161 13.7541 19.0657 13.9455 18.5455C14.1683 18.0406 14.0614 17.4509 13.6755 17.0564L13.6264 17.0073C13.3191 16.7003 13.1464 16.2839 13.1464 15.8495C13.1464 15.4152 13.3191 14.9987 13.6264 14.6918C13.9333 14.3845 14.3498 14.2119 14.7841 14.2119C15.2184 14.2119 15.6349 14.3845 15.9418 14.6918L15.9909 14.7409C16.3854 15.1268 16.9751 15.2337 17.48 15.0109H17.5455C18.04 14.7989 18.3615 14.3135 18.3636 13.7755V13.6364C18.3636 12.7326 19.0963 12 20 12C20.9037 12 21.6364 12.7326 21.6364 13.6364V13.71C21.6385 14.2481 21.96 14.7335 22.4545 14.9455C22.9594 15.1683 23.5491 15.0614 23.9436 14.6755L23.9927 14.6264C24.2997 14.3191 24.7161 14.1464 25.1505 14.1464C25.5848 14.1464 26.0013 14.3191 26.3082 14.6264C26.6155 14.9333 26.7881 15.3498 26.7881 15.7841C26.7881 16.2184 26.6155 16.6349 26.3082 16.9418L26.2591 16.9909C25.8732 17.3854 25.7663 17.9751 25.9891 18.48V18.5455C26.2011 19.04 26.6865 19.3615 27.2245 19.3636H27.3636C28.2674 19.3636 29 20.0963 29 21C29 21.9037 28.2674 22.6364 27.3636 22.6364H27.29C26.7519 22.6385 26.2665 22.96 26.0545 23.4545Z" stroke="white" stroke-width="2" stroke-linecap="round" stroke-linejoin="round"/>
</svg>
