<svg width="470" height="40" viewBox="0 0 470 40" fill="none" xmlns="http://www.w3.org/2000/svg">
<rect x="57" width="356" height="40" rx="20" fill="#EDEDED"/>
<path fill-rule="evenodd" clip-rule="evenodd" d="M20 40C31.0457 40 40 31.0457 40 20C40 8.9543 31.0457 0 20 0C8.9543 0 0 8.9543 0 20C0 31.0457 8.9543 40 20 40Z" fill="#EDEDED"/>
<path d="M23 25L17 19L23 13" stroke="black" stroke-width="2" stroke-linecap="round" stroke-linejoin="round"/>
<path fill-rule="evenodd" clip-rule="evenodd" d="M450 40C461.046 40 470 31.0457 470 20C470 8.9543 461.046 0 450 0C438.954 0 430 8.9543 430 20C430 31.0457 438.954 40 450 40Z" fill="#EDEDED"/>
<path d="M447 14L453 20L447 26" stroke="black" stroke-width="2" stroke-linecap="round" stroke-linejoin="round"/>
<path fill-rule="evenodd" clip-rule="evenodd" d="M243 40C254.046 40 263 31.0457 263 20C263 8.9543 254.046 0 243 0C231.954 0 223 8.9543 223 20C223 31.0457 231.954 40 243 40Z" fill="#6F64F8"/>
<path d="M80.428 12.4V25H79.132V13.552H76.162V12.4H80.428ZM114.666 23.848V25H105.828V24.082L111.066 18.952C111.726 18.304 112.17 17.746 112.398 17.278C112.638 16.798 112.758 16.318 112.758 15.838C112.758 15.094 112.5 14.518 111.984 14.11C111.48 13.69 110.754 13.48 109.806 13.48C108.33 13.48 107.184 13.948 106.368 14.884L105.45 14.092C105.942 13.516 106.566 13.072 107.322 12.76C108.09 12.448 108.954 12.292 109.914 12.292C111.198 12.292 112.212 12.598 112.956 13.21C113.712 13.81 114.09 14.638 114.09 15.694C114.09 16.342 113.946 16.966 113.658 17.566C113.37 18.166 112.824 18.856 112.02 19.636L107.736 23.848H114.666ZM143.198 17.8C144.518 17.872 145.52 18.232 146.204 18.88C146.9 19.516 147.248 20.35 147.248 21.382C147.248 22.102 147.074 22.744 146.726 23.308C146.378 23.86 145.862 24.298 145.178 24.622C144.494 24.946 143.66 25.108 142.676 25.108C141.764 25.108 140.9 24.964 140.084 24.676C139.28 24.376 138.632 23.98 138.14 23.488L138.77 22.462C139.19 22.894 139.748 23.248 140.444 23.524C141.14 23.788 141.884 23.92 142.676 23.92C143.708 23.92 144.506 23.698 145.07 23.254C145.634 22.798 145.916 22.174 145.916 21.382C145.916 20.602 145.634 19.99 145.07 19.546C144.506 19.102 143.654 18.88 142.514 18.88H141.614V17.926L145.106 13.552H138.662V12.4H146.762V13.318L143.198 17.8ZM182.406 21.688H179.886V25H178.59V21.688H171.48V20.752L178.158 12.4H179.598L173.154 20.536H178.626V17.62H179.886V20.536H182.406V21.688ZM209.53 17.566C211.354 17.566 212.68 17.896 213.508 18.556C214.348 19.204 214.768 20.116 214.768 21.292C214.768 22.024 214.594 22.678 214.246 23.254C213.91 23.83 213.4 24.286 212.716 24.622C212.032 24.946 211.192 25.108 210.196 25.108C209.296 25.108 208.438 24.964 207.622 24.676C206.818 24.376 206.17 23.98 205.678 23.488L206.308 22.462C206.728 22.894 207.28 23.248 207.964 23.524C208.648 23.788 209.386 23.92 210.178 23.92C211.222 23.92 212.026 23.686 212.59 23.218C213.166 22.75 213.454 22.126 213.454 21.346C213.454 20.482 213.13 19.828 212.482 19.384C211.846 18.94 210.766 18.718 209.242 18.718H206.56L207.208 12.4H214.102V13.552H208.342L207.91 17.566H209.53ZM281.518 12.4V13.318L276.244 25H274.84L280.024 13.552H273.544V15.91H272.266V12.4H281.518ZM313.066 18.394C313.858 18.658 314.464 19.054 314.884 19.582C315.316 20.11 315.532 20.746 315.532 21.49C315.532 22.222 315.334 22.864 314.938 23.416C314.542 23.956 313.972 24.376 313.228 24.676C312.496 24.964 311.632 25.108 310.636 25.108C309.124 25.108 307.936 24.784 307.072 24.136C306.208 23.488 305.776 22.606 305.776 21.49C305.776 20.734 305.98 20.098 306.388 19.582C306.808 19.054 307.414 18.658 308.206 18.394C307.558 18.142 307.066 17.782 306.73 17.314C306.394 16.834 306.226 16.27 306.226 15.622C306.226 14.602 306.622 13.792 307.414 13.192C308.218 12.592 309.292 12.292 310.636 12.292C311.524 12.292 312.298 12.43 312.958 12.706C313.63 12.97 314.152 13.354 314.524 13.858C314.896 14.362 315.082 14.95 315.082 15.622C315.082 16.27 314.908 16.834 314.56 17.314C314.212 17.782 313.714 18.142 313.066 18.394ZM307.522 15.658C307.522 16.354 307.798 16.906 308.35 17.314C308.902 17.722 309.664 17.926 310.636 17.926C311.608 17.926 312.37 17.722 312.922 17.314C313.486 16.906 313.768 16.36 313.768 15.676C313.768 14.968 313.48 14.41 312.904 14.002C312.34 13.594 311.584 13.39 310.636 13.39C309.676 13.39 308.914 13.594 308.35 14.002C307.798 14.41 307.522 14.962 307.522 15.658ZM310.636 24.01C311.752 24.01 312.622 23.782 313.246 23.326C313.882 22.87 314.2 22.252 314.2 21.472C314.2 20.692 313.882 20.08 313.246 19.636C312.622 19.18 311.752 18.952 310.636 18.952C309.532 18.952 308.662 19.18 308.026 19.636C307.402 20.08 307.09 20.692 307.09 21.472C307.09 22.264 307.402 22.888 308.026 23.344C308.65 23.788 309.52 24.01 310.636 24.01ZM343.872 12.292C345.54 12.292 346.818 12.844 347.706 13.948C348.594 15.04 349.038 16.588 349.038 18.592C349.038 19.996 348.798 21.184 348.318 22.156C347.838 23.128 347.166 23.866 346.302 24.37C345.438 24.862 344.43 25.108 343.278 25.108C342.03 25.108 341.034 24.88 340.29 24.424L340.812 23.38C341.412 23.776 342.228 23.974 343.26 23.974C344.652 23.974 345.744 23.536 346.536 22.66C347.328 21.772 347.724 20.488 347.724 18.808C347.724 18.496 347.706 18.154 347.67 17.782C347.358 18.466 346.86 19 346.176 19.384C345.492 19.756 344.706 19.942 343.818 19.942C342.99 19.942 342.252 19.786 341.604 19.474C340.968 19.162 340.47 18.724 340.11 18.16C339.75 17.584 339.57 16.918 339.57 16.162C339.57 15.394 339.756 14.716 340.128 14.128C340.5 13.54 341.01 13.09 341.658 12.778C342.318 12.454 343.056 12.292 343.872 12.292ZM344.016 18.844C344.652 18.844 345.21 18.724 345.69 18.484C346.182 18.244 346.566 17.914 346.842 17.494C347.118 17.074 347.256 16.606 347.256 16.09C347.256 15.61 347.124 15.166 346.86 14.758C346.608 14.35 346.23 14.02 345.726 13.768C345.222 13.516 344.622 13.39 343.926 13.39C343.014 13.39 342.27 13.642 341.694 14.146C341.13 14.638 340.848 15.298 340.848 16.126C340.848 16.954 341.13 17.614 341.694 18.106C342.27 18.598 343.044 18.844 344.016 18.844ZM377.031 12.4V25H375.735V13.552H372.765V12.4H377.031ZM389.465 25.108C388.493 25.108 387.623 24.85 386.855 24.334C386.099 23.818 385.505 23.08 385.073 22.12C384.653 21.148 384.443 20.008 384.443 18.7C384.443 17.392 384.653 16.258 385.073 15.298C385.505 14.326 386.099 13.582 386.855 13.066C387.623 12.55 388.493 12.292 389.465 12.292C390.437 12.292 391.301 12.55 392.057 13.066C392.825 13.582 393.425 14.326 393.857 15.298C394.289 16.258 394.505 17.392 394.505 18.7C394.505 20.008 394.289 21.148 393.857 22.12C393.425 23.08 392.825 23.818 392.057 24.334C391.301 24.85 390.437 25.108 389.465 25.108ZM389.465 23.92C390.197 23.92 390.839 23.716 391.391 23.308C391.955 22.9 392.393 22.306 392.705 21.526C393.017 20.746 393.173 19.804 393.173 18.7C393.173 17.596 393.017 16.654 392.705 15.874C392.393 15.094 391.955 14.5 391.391 14.092C390.839 13.684 390.197 13.48 389.465 13.48C388.733 13.48 388.085 13.684 387.521 14.092C386.969 14.5 386.537 15.094 386.225 15.874C385.913 16.654 385.757 17.596 385.757 18.7C385.757 19.804 385.913 20.746 386.225 21.526C386.537 22.306 386.969 22.9 387.521 23.308C388.085 23.716 388.733 23.92 389.465 23.92Z" fill="#2C2C2C"/>
<path d="M244.256 17.458C245.084 17.458 245.816 17.614 246.452 17.926C247.1 18.238 247.604 18.682 247.964 19.258C248.324 19.822 248.504 20.482 248.504 21.238C248.504 22.006 248.318 22.684 247.946 23.272C247.574 23.86 247.058 24.316 246.398 24.64C245.75 24.952 245.018 25.108 244.202 25.108C242.534 25.108 241.256 24.562 240.368 23.47C239.48 22.366 239.036 20.812 239.036 18.808C239.036 17.404 239.276 16.216 239.756 15.244C240.236 14.272 240.908 13.54 241.772 13.048C242.636 12.544 243.644 12.292 244.796 12.292C246.044 12.292 247.04 12.52 247.784 12.976L247.262 14.02C246.662 13.624 245.846 13.426 244.814 13.426C243.422 13.426 242.33 13.87 241.538 14.758C240.746 15.634 240.35 16.912 240.35 18.592C240.35 18.892 240.368 19.234 240.404 19.618C240.716 18.934 241.214 18.406 241.898 18.034C242.582 17.65 243.368 17.458 244.256 17.458ZM244.148 24.01C245.06 24.01 245.798 23.764 246.362 23.272C246.938 22.768 247.226 22.102 247.226 21.274C247.226 20.446 246.938 19.786 246.362 19.294C245.798 18.802 245.03 18.556 244.058 18.556C243.422 18.556 242.858 18.676 242.366 18.916C241.886 19.156 241.508 19.486 241.232 19.906C240.956 20.326 240.818 20.794 240.818 21.31C240.818 21.79 240.944 22.234 241.196 22.642C241.46 23.05 241.844 23.38 242.348 23.632C242.852 23.884 243.452 24.01 244.148 24.01Z" fill="white"/>
</svg>
