<svg width="317" height="20" viewBox="0 0 317 20" fill="none" xmlns="http://www.w3.org/2000/svg">
<rect x="9" y="8" width="308" height="6" rx="3" fill="#EDEDED"/>
<path fill-rule="evenodd" clip-rule="evenodd" d="M9 11C9 9.34315 10.3431 8 12 8L244 8C245.657 8 247 9.34315 247 11C247 12.6569 245.657 14 244 14H12C10.3432 14 9 12.6569 9 11Z" fill="#6F64F8"/>
<path fill-rule="evenodd" clip-rule="evenodd" d="M10 20C15.5228 20 20 15.5228 20 10C20 4.47715 15.5228 0 10 0C4.47715 0 0 4.47715 0 10C0 15.5228 4.47715 20 10 20Z" fill="#6F64F8"/>
<path fill-rule="evenodd" clip-rule="evenodd" d="M246 20C251.523 20 256 15.5228 256 10C256 4.47715 251.523 0 246 0C240.477 0 236 4.47715 236 10C236 15.5228 240.477 20 246 20Z" fill="#6F64F8"/>
</svg>
